<svg width="2557" height="493" viewBox="0 0 2557 493" fill="none" xmlns="http://www.w3.org/2000/svg">
<path d="M37.8676 338.247L306.727 69.3877L575.587 338.248M161.957 460.039L306.727 315.268L451.498 460.039" stroke="url(#paint0_linear_159_448)" strokeWidth="91.9179"/>
<path d="M737.579 52.5628H819.681V278.751C819.681 301.95 827.474 321.343 843.061 336.93C858.648 352.517 877.134 360.31 898.521 360.31C919.907 360.31 938.394 352.517 953.98 336.93C969.93 321.343 977.904 301.95 977.904 278.751V52.5628H1059.46V278.751C1059.46 323.699 1044.06 361.397 1013.25 391.846C982.798 421.932 944.556 436.975 898.521 436.975C853.211 436.975 814.969 422.113 783.795 392.39C752.984 362.304 737.579 324.424 737.579 278.751V52.5628ZM1116.76 432.625V52.0191H1284.77C1322.11 52.0191 1353.82 65.0685 1379.92 91.1672C1406.38 117.266 1419.62 148.077 1419.62 183.6C1419.62 219.848 1406.57 250.478 1380.47 275.489C1354.73 300.138 1322.83 312.644 1284.77 313.006L1198.86 313.55V432.625H1116.76ZM1198.86 240.691L1279.33 240.147C1297.1 240.147 1311.78 234.347 1323.38 222.748C1334.98 211.149 1340.78 197.193 1340.78 180.881C1340.78 164.932 1334.98 151.702 1323.38 141.19C1312.14 130.678 1297.46 125.422 1279.33 125.422L1198.86 125.965V240.691ZM1466.15 432.625V52.0191H1547.7V357.048H1724.96V432.625H1466.15ZM1770.93 432.625V52.0191H1849.77V432.625H1770.93ZM2190.62 52.0191V127.597H1991.07V205.349H2168.87V278.751H1991.07V432.625H1909.51V52.0191H2190.62ZM2228.91 52.0191H2537.74V128.14H2426.28V432.625H2344.72V128.14H2228.91V52.0191Z" fill="#E2E7ED"/>
<defs>
<linearGradient id="paint0_linear_159_448" x1="306.727" y1="69.3877" x2="306.727" y2="460.039" gradientUnits="userSpaceOnUse">
<stop stopColor="#31DF6B"/>
<stop offset="1" stopColor="#26BC58"/>
</linearGradient>
</defs>
</svg>
